<?xml version="1.0" encoding="utf-8"?>
<!-- Generator: Adobe Illustrator 28.0.0, SVG Export Plug-In . SVG Version: 6.00 Build 0)  -->
<svg version="1.1" id="Слой_1" xmlns="http://www.w3.org/2000/svg" xmlns:xlink="http://www.w3.org/1999/xlink" x="0px" y="0px"
	 viewBox="0 0 40 40" style="enable-background:new 0 0 40 40;" xml:space="preserve">
<style type="text/css">
	.st0{fill:#D9D9D9;filter:url(#Adobe_OpacityMaskFilter);}
	.st1{mask:url(#mask0_184_2287_00000106122928138307850340000014118751978123422362_);}
	.st2{fill:#003D6C;fill-opacity:0.35;}
</style>
<g id="delete__icon-inactive">
	<g id="delete">
		<defs>
			<filter id="Adobe_OpacityMaskFilter" filterUnits="userSpaceOnUse" x="12" y="11" width="16" height="18">
				<feColorMatrix  type="matrix" values="1 0 0 0 0  0 1 0 0 0  0 0 1 0 0  0 0 0 1 0"/>
			</filter>
		</defs>
		
			<mask maskUnits="userSpaceOnUse" x="12" y="11" width="16" height="18" id="mask0_184_2287_00000106122928138307850340000014118751978123422362_">
			<rect id="Bounding_box_00000036250767954020653170000016132255573965343400_" x="8" y="8" class="st0" width="24" height="24"/>
		</mask>
		<g class="st1">
			<path id="delete_2" class="st2" d="M15,29c-0.6,0-1-0.2-1.4-0.6C13.2,28,13,27.5,13,27V14h-1v-2h5v-1h6v1h5v2h-1v13
				c0,0.5-0.2,1-0.6,1.4C26,28.8,25.5,29,25,29H15z M25,14H15v13h10V14z M17,25h2v-9h-2V25z M21,25h2v-9h-2V25z"/>
		</g>
	</g>
</g>
</svg>
