<svg width="17" height="18" viewBox="0 0 17 18" fill="none" xmlns="http://www.w3.org/2000/svg">
<g id="search">
<mask id="mask0_184_2280" style="mask-type:alpha" maskUnits="userSpaceOnUse" x="0" y="0" width="17" height="18">
<rect id="Bounding box" y="0.5" width="17" height="17" fill="#D9D9D9"/>
</mask>
<g mask="url(#mask0_184_2280)">
<path id="search_2" d="M13.8833 15.375L9.42083 10.9125C9.06667 11.1958 8.65937 11.4201 8.19896 11.5854C7.73854 11.7507 7.24861 11.8333 6.72917 11.8333C5.44236 11.8333 4.3533 11.3877 3.46198 10.4964C2.57066 9.60503 2.125 8.51597 2.125 7.22917C2.125 5.94236 2.57066 4.8533 3.46198 3.96198C4.3533 3.07066 5.44236 2.625 6.72917 2.625C8.01597 2.625 9.10503 3.07066 9.99635 3.96198C10.8877 4.8533 11.3333 5.94236 11.3333 7.22917C11.3333 7.74861 11.2507 8.23854 11.0854 8.69896C10.9201 9.15937 10.6958 9.56667 10.4125 9.92083L14.875 14.3833L13.8833 15.375ZM6.72917 10.4167C7.61458 10.4167 8.36719 10.1068 8.98698 9.48698C9.60677 8.86719 9.91667 8.11458 9.91667 7.22917C9.91667 6.34375 9.60677 5.59115 8.98698 4.97135C8.36719 4.35156 7.61458 4.04167 6.72917 4.04167C5.84375 4.04167 5.09115 4.35156 4.47135 4.97135C3.85156 5.59115 3.54167 6.34375 3.54167 7.22917C3.54167 8.11458 3.85156 8.86719 4.47135 9.48698C5.09115 10.1068 5.84375 10.4167 6.72917 10.4167Z" fill="#003D6C"/>
</g>
</g>
</svg>
